<?xml version="1.0" standalone="no"?>
<!DOCTYPE svg PUBLIC "-//W3C//DTD SVG 20010904//EN"
 "http://www.w3.org/TR/2001/REC-SVG-20010904/DTD/svg10.dtd">
<svg version="1.0" xmlns="http://www.w3.org/2000/svg"
 width="704.000000pt" height="404.000000pt" viewBox="0 0 704.000000 404.000000"
 preserveAspectRatio="xMidYMid meet">

<g transform="translate(0.000000,404.000000) scale(0.100000,-0.100000)"
fill="#ead7bb" stroke="none">
<path d="M1656 4002 c17 -15 154 -133 303 -262 l272 -235 -648 -5 -648 -5 288
-245 288 -245 -746 -3 c-411 -1 -745 -6 -743 -11 8 -20 3493 -2981 3504 -2977
7 3 798 674 1758 1493 l1746 1488 -750 5 -750 5 118 100 c64 55 194 165 287
245 l170 145 -616 5 -616 5 289 250 c159 138 294 256 300 263 8 9 -375 12
-1913 12 l-1924 -1 31 -27z"/>
</g>
</svg>
