<?xml version="1.0" encoding="UTF-8"?>
<svg version="1.1" xmlns="http://www.w3.org/2000/svg" width="378" height="665">
<path d="M0 0 C0 0.66 0 1.32 0 2 C-0.66604248 2.03440186 -1.33208496 2.06880371 -2.01831055 2.10424805 C-46.44124615 4.54299121 -89.83924132 14.67588445 -130 34 C-130.87043945 34.40943848 -131.74087891 34.81887695 -132.63769531 35.24072266 C-150.77479359 43.7871531 -168.15099813 53.83878384 -183.79785156 66.44091797 C-185.88622287 68.12207714 -187.99384578 69.75299563 -190.13208008 71.37304688 C-198.64639572 77.82660328 -206.33022322 84.86137055 -213.84204102 92.45092773 C-215.68638988 94.31138018 -217.54628285 96.15519814 -219.40820312 97.99804688 C-227.29147764 105.86775158 -234.3083388 114.10251405 -241 123 C-242.07901723 124.38935207 -243.15940191 125.77764527 -244.2421875 127.1640625 C-252.08072568 137.40250554 -259.15376483 148.07788592 -266 159 C-266.53189941 159.84675293 -267.06379883 160.69350586 -267.61181641 161.56591797 C-281.11093499 183.18847308 -294.75212613 206.59577879 -289.375 233.078125 C-285.24428223 244.80641296 -275.16128394 254.1914384 -264.5 260 C-257.16808466 264.65024219 -254.38263372 271.34420801 -251 279 C-250.48050781 280.15870605 -249.96101563 281.31741211 -249.42578125 282.51123047 C-246.48614945 289.07907581 -243.59173699 295.66708348 -240.7578125 302.28125 C-240.2745752 303.40595703 -239.79133789 304.53066406 -239.29345703 305.68945312 C-237.95939516 309.10392632 -236.95040198 312.4630468 -236 316 C-268.33890656 313.04761575 -304.30271651 303.58509181 -330 283 C-330.51852539 282.5882251 -331.03705078 282.1764502 -331.57128906 281.75219727 C-342.32906056 273.04472649 -349.97425297 260.75917625 -352 247 C-353.09083407 232.57499494 -352.63735743 218.73762625 -348 205 C-347.5935298 203.67624772 -347.18862387 202.35201427 -346.78515625 201.02734375 C-333.95370405 160.5130434 -304.72338791 125.53317065 -275.09863281 95.91333008 C-273.6279359 94.44044028 -272.16546466 92.95969735 -270.703125 91.47851562 C-264.46970681 85.20865042 -257.91401132 79.51483045 -251 74 C-249.91012382 73.07667848 -248.82549451 72.14706543 -247.75 71.20703125 C-224.33433896 50.81811049 -198.05445211 34.59312641 -170.18261719 21.06689453 C-167.80323829 19.90382006 -165.43730366 18.71541058 -163.0703125 17.52734375 C-111.73762819 -7.95094893 -55.41944721 -12.07019697 0 0 Z " fill="#FFDE58" transform="translate(367,142)"/>
<path d="M0 0 C3 1 3 1 4.02824402 2.8012085 C4.3349855 3.58836243 4.64172699 4.37551636 4.95776367 5.18652344 C5.31210983 6.07966248 5.66645599 6.97280151 6.03153992 7.89300537 C6.40656143 8.87190735 6.78158295 9.85080933 7.16796875 10.859375 C7.56647537 11.87356506 7.96498199 12.88775513 8.37556458 13.93267822 C9.65678355 17.20109813 10.92219994 20.47538901 12.1875 23.75 C13.02047517 25.88060316 13.85444895 28.0108162 14.68945312 30.140625 C19.21354297 41.7037328 23.6604747 53.2962997 28.06347656 64.90600586 C29.3635074 68.33282566 30.67479847 71.75501937 31.99511719 75.17407227 C36.90869521 87.92262755 41.52765692 100.75614757 45.9375 113.6875 C46.2835025 114.70170013 46.629505 115.71590027 46.98599243 116.76083374 C58.78192215 151.48444609 67.36264055 186.43132224 71 223 C71.09571289 223.88864746 71.19142578 224.77729492 71.29003906 225.69287109 C72.23777066 235.40287389 72.24358204 245.12764343 72.25 254.875 C72.25067474 255.79940887 72.25134949 256.72381775 72.25204468 257.67623901 C72.20411827 299.26068699 65.23789275 335.06799602 46 372 C45.01 372 44.02 372 43 372 C43.06928711 370.85716553 43.13857422 369.71433105 43.20996094 368.53686523 C44.01977904 354.37832265 44.24256622 340.24250095 44.25 326.0625 C44.25067474 324.89502228 44.25134949 323.72754456 44.25204468 322.52468872 C44.23583083 304.81113526 43.72759754 287.53029917 41 270 C40.83902832 268.90816406 40.67805664 267.81632812 40.51220703 266.69140625 C31.75326293 208.46672501 9.90587014 155.09674803 -15.5625 102.375 C-17.71176751 97.91831193 -19.85713761 93.459771 -22 89 C-22.5367334 87.88625 -23.0734668 86.7725 -23.62646484 85.625 C-25.18227768 82.38171042 -26.71872747 79.12993506 -28.25 75.875 C-28.71607666 74.90997559 -29.18215332 73.94495117 -29.66235352 72.95068359 C-32.45658274 66.95210184 -35.32819645 60.70747279 -33.44287109 54.02539062 C-32.59611908 52.03625993 -31.62869721 50.19280162 -30.5625 48.3125 C-30.1927002 47.62244873 -29.82290039 46.93239746 -29.44189453 46.22143555 C-28.31545081 44.13538433 -27.15899936 42.0680879 -26 40 C-25.39800781 38.8759375 -24.79601562 37.751875 -24.17578125 36.59375 C-17.23148586 23.94037012 -9.29355516 11.06485156 0 0 Z " fill="#BEBEBE" transform="translate(127,283)"/>
<path d="M0 0 C-0.49780568 4.97805684 -3.06725771 8.44037354 -5.75 12.5 C-30.16445903 51.01335097 -39.1892463 96.35533412 -39.25 141.4375 C-39.25350464 142.63531601 -39.25350464 142.63531601 -39.25708008 143.85733032 C-39.27214412 157.63596209 -38.29580855 171.08347765 -36.65625 184.76171875 C-36.42937806 186.84027538 -36.21006893 188.919678 -36 191 C-35.84917969 192.39980103 -35.84917969 192.39980103 -35.6953125 193.82788086 C-35.31565484 199.88488945 -35.31565484 199.88488945 -37.09570312 202.78540039 C-38.63230047 204.4301836 -40.2280174 205.80081604 -42 207.1875 C-42.55300781 207.65607422 -43.10601562 208.12464844 -43.67578125 208.60742188 C-44.82612208 209.57926154 -45.98574595 210.54020063 -47.15356445 211.4909668 C-53.57793715 216.74140282 -59.50392056 222.39422123 -65.3125 228.3125 C-66.70206438 229.72758439 -68.093897 231.14044599 -69.48828125 232.55078125 C-70.09196533 233.16606689 -70.69564941 233.78135254 -71.31762695 234.4152832 C-73.92455412 236.87088678 -75.35527307 238 -79 238 C-82.49958302 231.00083397 -81.1612754 220.69109584 -81.16796875 213.078125 C-81.17119446 211.72882047 -81.17455943 210.37951626 -81.17805481 209.0302124 C-81.1840158 206.20616856 -81.18589824 203.38215515 -81.18530273 200.55810547 C-81.18522205 197.70745418 -81.19207521 194.85696555 -81.20581055 192.00634766 C-81.30423934 171.23995802 -80.94502456 150.74430324 -76.8125 130.3125 C-76.60036865 129.2414502 -76.3882373 128.17040039 -76.16967773 127.06689453 C-71.28518591 103.17516929 -64.5316478 80.53047013 -53 59 C-52.66709961 58.37818848 -52.33419922 57.75637695 -51.99121094 57.11572266 C-47.57899021 48.961956 -42.68618975 41.32790037 -37 34 C-36.33613281 33.13117187 -35.67226562 32.26234375 -34.98828125 31.3671875 C-10.2511844 0 -10.2511844 0 0 0 Z " fill="#BEBEBE" transform="translate(145,6)"/>
<path d="M0 0 C5.02878886 0.43434536 9.13656368 1.66607206 13.75390625 3.66015625 C14.68806618 4.06239662 14.68806618 4.06239662 15.64109802 4.47276306 C16.95469158 5.04104658 18.26644833 5.61359309 19.57641602 6.19018555 C21.52823401 7.04744992 23.48696681 7.886953 25.44726562 8.72460938 C43.82923682 16.67533557 60.51101907 27.09431138 75 41 C75.89332031 41.83015625 76.78664063 42.6603125 77.70703125 43.515625 C91.79435769 56.99217225 101.13159707 72.99625728 107.4375 91.375 C107.68467773 92.0875293 107.93185547 92.80005859 108.18652344 93.53417969 C111.21679518 102.89300753 111.16164319 112.43430524 111.125 122.1875 C111.12886719 123.22841797 111.13273437 124.26933594 111.13671875 125.34179688 C111.12995383 130.6691709 110.93518737 135.75255978 110 141 C109.01 141.33 108.02 141.66 107 142 C106.72027344 140.9584375 106.44054687 139.916875 106.15234375 138.84375 C100.68320721 119.04957526 92.70289937 100.29671722 78.26171875 85.3671875 C76 83 76 83 73.921875 80.39453125 C58.95360865 61.74504492 31.97361575 47.37643168 9.4765625 40.3984375 C7 39 7 39 5.80859375 36.55859375 C5.54175781 35.38425781 5.27492187 34.20992188 5 33 C4.80341797 32.1759668 4.60683594 31.35193359 4.40429688 30.50292969 C3.71596593 27.57088498 3.07305309 24.63141209 2.4375 21.6875 C2.10588867 20.19573242 2.10588867 20.19573242 1.76757812 18.67382812 C0.48872836 12.78957376 -0.55279981 7.00963542 -1 1 C-0.67 0.67 -0.34 0.34 0 0 Z " fill="#FFDE58" transform="translate(199,435)"/>
<path d="M0 0 C7.68916951 6.61783902 12.31838797 14.86549177 13.44140625 24.97265625 C13.95038624 35.80574535 11.60738421 44.64806629 4.76171875 53.18359375 C-2.41879279 60.58700365 -11.88870552 64.25924016 -22 65.3125 C-31.28831742 65.12957909 -40.31612136 61.33209556 -47 55 C-47.55300781 54.48695313 -48.10601562 53.97390625 -48.67578125 53.4453125 C-56.04677767 45.79996138 -57.61403429 36.44972479 -57.46826172 26.20751953 C-57.05700835 16.59366458 -53.83965423 9.96803973 -47.21875 2.9765625 C-43.80367172 -0.06574315 -40.14242276 -2.10837342 -36 -4 C-34.700625 -4.61875 -34.700625 -4.61875 -33.375 -5.25 C-22.38003245 -8.72209501 -9.39587598 -6.66698678 0 0 Z " fill="#BEBEBE" transform="translate(176,99)"/>
</svg>
