<?xml version="1.0" standalone="no"?>
<!DOCTYPE svg PUBLIC "-//W3C//DTD SVG 20010904//EN"
 "http://www.w3.org/TR/2001/REC-SVG-20010904/DTD/svg10.dtd">
<svg version="1.0" xmlns="http://www.w3.org/2000/svg"
 width="302.000000pt" height="532.000000pt" viewBox="0 0 302.000000 532.000000"
 preserveAspectRatio="xMidYMid meet">

<g transform="translate(0.000000,532.000000) scale(0.100000,-0.100000)"
fill="#ffde59" stroke="none">
<path fill="#000000" d="M1089 5221 c-218 -166 -406 -463 -483 -760 -70 -271 -85 -372 -93
-616 -6 -212 2 -451 17 -474 5 -9 39 19 111 91 57 58 132 129 167 159 l62 54
-14 110 c-48 371 -19 742 81 1035 34 99 124 294 162 350 30 44 63 100 58 100
-2 0 -33 -22 -68 -49z"/>
<path fill="#000000" d="M1142 4562 c-114 -41 -184 -130 -190 -243 -9 -154 80 -270 230 -300
68 -14 141 4 214 53 67 45 114 137 114 224 0 72 -42 167 -93 210 -78 66 -186
88 -275 56z"/>
<path  d="M2365 4234 c-223 -21 -487 -85 -642 -155 -322 -147 -484 -244 -726
-438 -301 -240 -545 -518 -715 -812 -53 -92 -124 -259 -127 -299 -1 -14 -8
-36 -15 -50 -22 -40 -26 -252 -6 -320 40 -136 164 -261 341 -344 129 -61 304
-110 532 -150 l32 -5 -20 52 c-29 73 -75 178 -119 273 -34 73 -42 84 -91 112
-95 54 -170 140 -199 225 -28 87 -7 227 53 357 63 135 242 411 370 570 90 111
269 291 358 358 30 22 79 60 109 83 155 121 427 261 655 339 237 81 535 140
709 140 38 0 67 3 63 6 -3 3 -60 17 -126 30 -116 22 -342 37 -436 28z"/>
<path fill="#000000" d="M960 2969 c-92 -138 -163 -256 -194 -325 -32 -72 -45 -31 111 -359
127 -264 135 -283 196 -425 171 -403 263 -756 298 -1140 12 -134 7 -569 -7
-618 -3 -12 -2 -22 3 -22 13 0 115 216 143 300 59 181 90 532 72 793 -20 267
-48 427 -124 707 -42 151 -169 520 -214 618 -13 29 -24 56 -24 59 0 4 -24 68
-54 142 -30 75 -71 179 -90 231 -20 52 -40 104 -44 114 -7 16 -19 4 -72 -75z"/>
<path d="M1586 1824 c-3 -8 -2 -23 2 -32 9 -18 24 -80 46 -191 l12 -64 60 -22
c225 -85 443 -244 574 -419 78 -105 147 -254 166 -361 7 -37 7 -38 17 -15 14
36 13 256 -2 320 -65 284 -273 526 -586 683 -67 33 -265 117 -277 117 -3 0 -9
-7 -12 -16z"/>
</g>
</svg>
